<svg width="713" height="177" viewBox="0 0 713 177" fill="none" xmlns="http://www.w3.org/2000/svg">
<path fill-rule="evenodd" clip-rule="evenodd" d="M87.5873 163.233C128.206 163.233 161.397 129.92 161.397 88.5C161.397 77.6472 159.118 67.3509 155.024 58.0646C159.613 56.8804 163.77 54.6212 167.209 51.5719C172.323 62.8112 175.175 75.3191 175.175 88.5C175.175 137.377 135.96 177 87.5873 177C39.2142 177 0 137.377 0 88.5C0 39.6228 39.2142 0 87.5873 0C101.485 0 114.628 3.27078 126.301 9.0921C123.111 12.4185 120.692 16.4902 119.334 21.0195C109.707 16.3676 98.9369 13.7667 87.5873 13.7667C46.9682 13.7667 13.7778 47.0805 13.7778 88.5C13.7778 129.92 46.9682 163.233 87.5873 163.233ZM147.62 37.3668C151.968 37.3668 155.493 33.8448 155.493 29.5002C155.493 25.1555 151.968 21.6335 147.62 21.6335C143.272 21.6335 139.747 25.1555 139.747 29.5002C139.747 33.8448 143.272 37.3668 147.62 37.3668ZM87.5886 135.7C112.924 135.7 133.843 114.78 133.843 88.5C133.843 62.2203 112.924 41.3 87.5886 41.3C62.2536 41.3 41.3347 62.2203 41.3347 88.5C41.3347 114.78 62.2536 135.7 87.5886 135.7ZM87.5886 149.467C120.743 149.467 147.62 122.171 147.62 88.5C147.62 54.829 120.743 27.5333 87.5886 27.5333C54.434 27.5333 27.5569 54.829 27.5569 88.5C27.5569 122.171 54.434 149.467 87.5886 149.467ZM80.3706 75.8598C82.8148 74.2175 85.6688 73.3524 88.5729 73.3524V60.9668C83.0825 60.9668 77.7307 62.6049 73.1952 65.6524C68.662 68.6984 65.1552 73.0092 63.0912 78.0201C61.0278 83.0295 60.4906 88.5322 61.5403 93.8392L73.9782 91.4876C73.3903 88.5153 73.6935 85.4363 74.8425 82.6468C75.991 79.8587 77.9242 77.5036 80.3706 75.8598ZM103.46 88.5001C103.46 91.5342 102.565 94.4865 100.906 96.9826C99.2487 99.4769 96.9116 101.394 94.2112 102.519C91.5129 103.643 88.5546 103.934 85.7024 103.363L83.1631 115.498C88.5441 116.574 94.1196 116.02 99.1767 113.913C104.232 111.808 108.523 108.254 111.53 103.73C114.535 99.2071 116.128 93.9075 116.128 88.5001H103.46Z" fill="#F86F2D"/>
<path d="M713 50.8875C713 56.9972 708.043 61.95 701.929 61.95C695.814 61.95 690.857 56.9972 690.857 50.8875C690.857 44.7779 695.814 39.825 701.929 39.825C708.043 39.825 713 44.7779 713 50.8875Z" fill="#F86F2D"/>
<path d="M269.241 139.8V101.862C269.241 93.2769 274.621 87.7385 283.034 87.7385C290.345 87.7385 295.172 93.4154 295.172 102.138V139.8H316.413V97.0154C316.413 78.8769 306.896 68.3538 290.483 68.3538C281.517 68.3538 273.655 71.8154 269.379 77.7692L268 70.5692H248V139.8H269.241Z" fill="black"/>
<path d="M377.44 70.5692V106.569C377.44 117.923 373.716 122.631 364.613 122.631C355.923 122.631 352.061 117.646 352.061 106.292V70.5692H330.82V114.046C330.82 131.077 340.475 141.6 356.199 141.6C364.475 141.6 373.026 137.723 377.302 132.046L378.682 139.8H398.681V70.5692H377.44Z" fill="black"/>
<path d="M434.621 139.8L435.724 130.938C439.449 137.308 447.724 141.6 457.379 141.6C476.966 141.6 490.621 127.338 490.621 105.877C490.621 83.3077 478.345 68.2154 459.035 68.2154C449.104 68.2154 440 72.3692 435.862 78.6V35.4H414.621V139.8H434.621ZM436 104.769C436 94.3846 442.897 87.4615 452.828 87.4615C462.897 87.4615 469.241 94.5231 469.241 104.769C469.241 115.015 462.897 122.077 452.828 122.077C442.897 122.077 436 115.154 436 104.769Z" fill="black"/>
<path d="M522.848 139.8L523.951 130.938C527.675 137.308 535.951 141.6 545.606 141.6C565.193 141.6 578.848 127.338 578.848 105.877C578.848 83.3077 566.572 68.2154 547.262 68.2154C537.331 68.2154 528.227 72.3692 524.089 78.6V35.4H502.848V139.8H522.848ZM524.227 104.769C524.227 94.3846 531.124 87.4615 541.055 87.4615C551.124 87.4615 557.468 94.5231 557.468 104.769C557.468 115.015 551.124 122.077 541.055 122.077C531.124 122.077 524.227 115.154 524.227 104.769Z" fill="black"/>
<path d="M612.316 139.8V35.4H591.075V139.8H612.316Z" fill="black"/>
<path d="M660.251 141.6C679.148 141.6 692.803 131.769 695.286 116.4H675.838C674.32 121.385 668.665 124.292 660.665 124.292C651.286 124.292 646.182 120 644.941 110.862L695.01 110.585V105.185C695.01 82.6154 681.493 68.3538 659.838 68.3538C639.01 68.3538 624.527 83.4461 624.527 105.046C624.527 126.369 639.424 141.6 660.251 141.6ZM659.976 85.6615C668.527 85.6615 673.906 90.3692 673.906 97.7077H645.217C646.872 89.4 651.562 85.6615 659.976 85.6615Z" fill="black"/>
</svg>
